<svg height="512pt" viewBox="-43 0 512 512" width="512pt" xmlns="http://www.w3.org/2000/svg"><path d="m373.332031 0h-320v512h320c29.460938 0 53.335938-23.871094 53.335938-53.332031v-405.335938c0-29.460937-23.875-53.332031-53.335938-53.332031zm0 0" fill="#2196f3"/><path d="m85.332031 0h-32c-29.460937 0-53.332031 23.871094-53.332031 53.332031v405.335938c0 29.460937 23.871094 53.332031 53.332031 53.332031h32zm0 0" fill="#455a64"/><path d="m309.332031 202.667969h-128c-5.886719 0-10.664062 4.777343-10.664062 10.664062v117.335938c0 2.75 1.066406 5.394531 2.964843 7.378906.980469 1.003906 24.148438 24.621094 71.699219 24.621094 47.554688 0 70.722657-23.617188 71.703125-24.621094 1.898438-1.984375 2.964844-4.628906 2.964844-7.378906v-117.335938c0-5.886719-4.777344-10.664062-10.667969-10.664062zm0 0" fill="#eceff1"/><path d="m298.667969 128c-9.707031 0-33.707031 1.792969-46.804688 18.433594-1.792969 2.300781-3.628906 5.203125-5.058593 8.746094-15.316407-14.742188-34.324219-27.179688-54.804688-27.179688-31.464844 0-64 23.9375-64 64 0 33.492188 25.40625 64 53.332031 64 9.578125 0 27.117188-7.445312 52.289063-19.433594.128906-.066406.234375-.128906.363281-.171875 5.84375 4.4375 12.566406 8.9375 22.015625 8.9375 8.746094 0 14.71875-3.796875 19.476562-7.957031 8.789063 7.914062 20.800782 18.625 33.855469 18.625 28.417969 0 53.335938-29.910156 53.335938-64s-29.910157-64-64-64zm0 0" fill="#eceff1"/><path d="m373.332031 512h-320c-29.394531 0-53.332031-23.914062-53.332031-53.332031v-405.335938c0-29.417969 23.9375-53.332031 53.332031-53.332031h320c29.398438 0 53.335938 23.914062 53.335938 53.332031v405.335938c0 29.417969-23.9375 53.332031-53.335938 53.332031zm-320-490.667969c-17.640625 0-32 14.359375-32 32v405.335938c0 17.640625 14.359375 32 32 32h320c17.644531 0 32-14.359375 32-32v-405.335938c0-17.640625-14.355469-32-32-32zm0 0"/><path d="m74.667969 512c-5.890625 0-10.667969-4.777344-10.667969-10.667969v-490.664062c0-5.890625 4.777344-10.667969 10.667969-10.667969 5.886719 0 10.664062 4.777344 10.664062 10.667969v490.664062c0 5.890625-4.777343 10.667969-10.664062 10.667969zm0 0"/><path d="m181.332031 256c-28.414062 0-53.332031-29.910156-53.332031-64 0-40.0625 32.535156-64 64-64 29.484375 0 55.636719 25.40625 72.382812 46.742188 3.648438 4.628906 2.839844 11.328124-1.789062 14.976562-4.652344 3.625-11.351562 2.835938-14.976562-1.816406-19.5625-24.851563-39.296876-38.570313-55.617188-38.570313-17.726562 0-42.667969 13.226563-42.667969 42.667969 0 23.617188 17.515625 42.667969 32 42.667969 6.804688 0 18.21875-5.355469 23.703125-7.9375l4.203125-1.917969c5.417969-2.199219 11.691407.359375 13.949219 5.757812 2.261719 5.460938-.316406 11.691407-5.757812 13.953126l-3.328126 1.515624c-7.9375 3.730469-21.207031 9.960938-32.769531 9.960938zm0 0"/><path d="m309.332031 256c-13.097656 0-19.476562-5.800781-23.679687-9.644531-1.171875-1.066407-2.175782-1.980469-3.007813-2.453125-5.097656-2.964844-6.824219-9.492188-3.882812-14.589844 2.964843-5.097656 9.496093-6.828125 14.59375-3.882812 2.792969 1.621093 4.925781 3.582031 6.65625 5.140624 3.175781 2.902344 4.480469 4.097657 9.320312 4.097657 16.449219 0 32-20.738281 32-42.667969 0-22.335938-20.328125-42.667969-42.664062-42.667969-10.582031 0-24 2.710938-29.976563 10.304688-3.5625 4.523437-4.328125 10.816406-2.300781 19.179687 1.363281 5.738282-2.15625 11.5-7.875 12.886719-5.757813 1.277344-11.496094-2.179687-12.882813-7.875-4.480468-18.621094.960938-30.613281 6.292969-37.394531 13.121094-16.640625 37.054688-18.433594 46.742188-18.433594 34.089843 0 64 29.910156 64 64s-24.917969 64-53.335938 64zm0 0"/><path d="m256 245.332031c-10.539062 0-17.601562-5.460937-23.851562-10.261719-7.378907-5.695312-14.378907-11.070312-29.480469-11.070312-5.890625 0-10.667969-4.777344-10.667969-10.667969 0-5.886719 4.777344-10.664062 10.667969-10.664062 22.378906 0 34.003906 8.957031 42.496093 15.507812 5.117188 3.925781 7.722657 5.824219 10.835938 5.824219 2.667969 0 4.222656-1.195312 9.003906-5.929688 6.183594-6.125 15.53125-15.402343 33.664063-15.402343 5.886719 0 10.664062 4.777343 10.664062 10.664062 0 5.890625-4.777343 10.667969-10.664062 10.667969-9.34375 0-13.25 3.863281-18.648438 9.214844-5.4375 5.398437-12.222656 12.117187-24.019531 12.117187zm0 0"/><path d="m245.332031 362.667969c-47.550781 0-70.738281-23.597657-71.699219-24.621094-1.898437-1.984375-2.964843-4.628906-2.964843-7.378906v-85.335938c0-5.886719 4.777343-10.664062 10.664062-10.664062 5.890625 0 10.667969 4.777343 10.667969 10.664062v80.46875c6.507812 4.972657 23.785156 15.53125 53.332031 15.53125 29.503907 0 46.765625-10.515625 53.335938-15.550781v-80.449219c0-5.886719 4.777343-10.664062 10.664062-10.664062 5.890625 0 10.667969 4.777343 10.667969 10.664062v85.335938c0 2.75-1.066406 5.394531-2.964844 7.378906-.960937 1.023437-24.148437 24.621094-71.703125 24.621094zm0 0"/></svg>